<!DOCTYPE svg PUBLIC "-//W3C//DTD SVG 20010904//EN" "http://www.w3.org/TR/2001/REC-SVG-20010904/DTD/svg10.dtd">
<svg version="1.0" xmlns="http://www.w3.org/2000/svg" width="80px" height="80px" viewBox="0 0 800 800" preserveAspectRatio="xMidYMid meet">
<g id="layer1" fill="#ff2558" stroke="none">
 <path d="M262 707 c-50 -51 -92 -99 -92 -107 0 -20 411 -430 430 -430 23 0 200 182 200 205 0 28 -398 425 -425 425 -12 0 -57 -37 -113 -93z m398 -392 c-57 -57 -60 -59 -77 -42 -17 17 -17 20 16 49 l34 30 -27 26 -26 26 -33 -32 -33 -32 -31 32 -32 33 35 33 c18 18 34 35 34 37 0 9 -40 45 -49 45 -6 0 -22 -16 -37 -35 l-27 -36 -34 33 -33 32 35 36 c19 20 35 39 35 42 0 3 -12 13 -26 23 -26 17 -27 16 -60 -16 -32 -31 -35 -32 -51 -16 -16 16 -14 20 42 77 l60 60 172 -172 173 -173 -60 -60z"/>
 <path d="M55 685 c-56 -29 -55 -26 -55 -341 l0 -291 26 -27 27 -26 259 0 c167 0 267 4 280 11 20 11 48 65 48 94 0 10 -10 15 -34 15 -28 0 -35 -4 -38 -22 l-3 -23 -247 -3 -248 -2 0 275 0 275 25 0 c23 0 25 4 25 40 0 45 -14 51 -65 25z"/>
 <path d="M123 514 c-20 -9 -15 -42 8 -54 26 -14 51 4 47 34 -3 21 -30 30 -55 20z"/>
 <path d="M123 403 c-7 -2 -13 -15 -13 -29 0 -17 7 -25 24 -30 32 -8 46 2 46 31 0 28 -25 41 -57 28z"/>
 <path d="M229 394 c-17 -21 0 -49 31 -49 31 0 48 28 31 49 -17 20 -45 20 -62 0z"/>
 <path d="M122 288 c-30 -30 3 -77 40 -57 30 16 16 69 -17 69 -6 0 -16 -5 -23 -12z"/>
 <path d="M236 284 c-21 -20 -20 -27 3 -48 16 -15 22 -15 40 -4 26 16 27 44 2 58 -25 13 -27 13 -45 -6z"/>
 <path d="M353 293 c-18 -7 -16 -48 3 -64 31 -26 70 25 44 56 -13 15 -25 17 -47 8z"/>
 <path d="M123 174 c-17 -8 -16 -39 2 -54 24 -20 57 -3 53 28 -3 27 -27 38 -55 26z"/>
 <path d="M229 164 c-17 -21 0 -49 31 -49 31 0 48 28 31 49 -8 9 -21 16 -31 16 -10 0 -23 -7 -31 -16z"/>
 <path d="M347 174 c-15 -16 -7 -53 14 -59 30 -10 58 19 43 43 -12 18 -45 28 -57 16z"/>
 <path d="M460 165 c-18 -22 -1 -50 31 -50 20 0 24 5 24 30 0 23 -5 31 -21 33 -11 2 -27 -4 -34 -13z"/>
 </g>

</svg>