<!DOCTYPE svg PUBLIC "-//W3C//DTD SVG 20010904//EN" "http://www.w3.org/TR/2001/REC-SVG-20010904/DTD/svg10.dtd">
<svg version="1.0" xmlns="http://www.w3.org/2000/svg" width="78px" height="78px" viewBox="0 0 780 780" preserveAspectRatio="xMidYMid meet">
<g id="layer1" fill="#ff2558" stroke="none">
 <path d="M279 766 c-179 -68 -279 -203 -279 -376 0 -215 175 -390 390 -390 169 0 318 109 373 274 22 63 22 169 0 232 -22 66 -76 147 -123 184 -73 58 -146 84 -240 87 -54 2 -98 -3 -121 -11z m81 -100 c0 -8 7 -16 15 -20 21 -8 45 3 45 20 0 42 130 -15 189 -82 53 -61 89 -164 57 -164 -8 0 -16 -7 -20 -15 -8 -21 3 -45 20 -45 32 0 -4 -103 -57 -164 -59 -67 -189 -124 -189 -82 0 17 -24 28 -45 20 -8 -4 -15 -12 -15 -20 0 -36 -103 1 -169 61 -62 56 -116 185 -77 185 8 0 16 7 20 15 8 21 -3 45 -20 45 -39 0 15 129 77 185 66 60 169 97 169 61z"/>
 <path d="M457 510 c-37 -33 -74 -60 -81 -60 -36 0 -61 -75 -33 -98 8 -7 14 -41 16 -94 3 -88 8 -102 37 -96 17 3 19 15 22 90 2 61 7 90 17 98 8 7 15 17 15 22 0 12 29 49 81 106 27 28 39 50 37 65 -6 41 -39 31 -111 -33z"/>
 </g>

</svg>