<!DOCTYPE svg PUBLIC "-//W3C//DTD SVG 20010904//EN" "http://www.w3.org/TR/2001/REC-SVG-20010904/DTD/svg10.dtd">
<svg version="1.0" xmlns="http://www.w3.org/2000/svg" width="22px" height="20px" viewBox="0 0 220 200" preserveAspectRatio="xMidYMid meet">
<g id="layer1" fill="#ff2558" stroke="none">
 <path d="M0 100 l0 -100 110 0 110 0 0 100 c0 93 -1 100 -20 100 -11 0 -20 -4 -20 -10 0 -6 -30 -10 -70 -10 -40 0 -70 4 -70 10 0 6 -9 10 -20 10 -19 0 -20 -7 -20 -100z m100 35 c0 -14 -4 -25 -10 -25 -5 0 -10 -9 -10 -20 0 -11 5 -20 10 -20 6 0 10 -11 10 -25 0 -22 -4 -25 -39 -25 l-39 0 -4 70 -3 70 43 0 c38 0 42 -2 42 -25z m110 -45 l0 -70 -45 0 c-41 0 -45 2 -45 25 0 14 5 25 10 25 6 0 10 9 10 20 0 11 -4 20 -10 20 -5 0 -10 11 -10 25 0 23 4 25 45 25 l45 0 0 -70z"/>
 </g>

</svg>