<!DOCTYPE svg PUBLIC "-//W3C//DTD SVG 20010904//EN" "http://www.w3.org/TR/2001/REC-SVG-20010904/DTD/svg10.dtd">
<svg version="1.0" xmlns="http://www.w3.org/2000/svg" width="23px" height="23px" viewBox="0 0 230 230" preserveAspectRatio="xMidYMid meet">
<g id="layer1" fill="#ff2558" stroke="none">
 <path d="M60 220 c0 -5 7 -10 15 -10 19 0 29 -40 22 -96 -4 -40 -3 -44 18 -44 21 0 22 4 18 44 -7 62 3 96 27 96 11 0 20 5 20 10 0 6 -27 10 -60 10 -33 0 -60 -4 -60 -10z"/>
 <path d="M11 166 c-9 -11 -8 -23 4 -51 8 -21 15 -48 15 -61 0 -16 6 -24 18 -24 9 0 30 -7 47 -16 18 -9 31 -11 33 -5 2 6 19 13 38 17 23 4 34 12 34 24 0 10 7 37 15 60 11 32 12 46 4 56 -14 17 -40 18 -63 1 -16 -12 -16 -15 4 -61 16 -39 18 -51 8 -58 -18 -11 -28 -10 -28 2 0 13 -33 13 -46 0 -5 -5 -15 -6 -24 0 -13 8 -12 15 3 56 13 35 14 50 6 60 -15 18 -53 18 -68 0z m49 -33 c0 -10 -20 -40 -20 -31 0 3 -3 13 -6 22 -4 11 -1 16 10 16 9 0 16 -3 16 -7z m140 0 c0 -5 -4 -14 -9 -21 -6 -10 -10 -9 -14 7 -3 14 0 21 9 21 8 0 14 -3 14 -7z"/>
 </g>

</svg>