<!DOCTYPE svg PUBLIC "-//W3C//DTD SVG 20010904//EN" "http://www.w3.org/TR/2001/REC-SVG-20010904/DTD/svg10.dtd">
<svg version="1.0" xmlns="http://www.w3.org/2000/svg" width="69px" height="62px" viewBox="0 0 690 620" preserveAspectRatio="xMidYMid meet">
<g id="layer1" fill="#ff2558" stroke="none">
 <path d="M0 590 l0 -30 93 0 c50 -1 104 -6 118 -13 37 -17 169 -142 169 -160 0 -33 -34 -26 -128 27 l-97 53 -3 -34 c-3 -28 7 -48 57 -118 l61 -85 -34 0 c-28 0 -53 15 -132 80 l-99 81 -3 -38 c-3 -34 1 -42 45 -81 106 -95 119 -102 197 -102 l71 0 37 -58 c21 -31 49 -70 62 -87 l24 -30 29 26 c15 14 72 58 126 98 53 40 97 74 97 76 0 3 -225 322 -279 395 l-18 24 -32 -27 c-37 -31 -53 -34 -72 -11 -29 35 -66 44 -179 44 l-110 0 0 -30z m413 -112 l29 -40 -40 33 c-22 19 -38 37 -36 41 9 14 19 7 47 -34z m116 -167 c40 -57 69 -107 64 -111 -41 -34 -145 -111 -148 -108 -7 8 -124 176 -141 202 l-18 29 22 -12 c12 -6 22 -19 22 -28 0 -9 10 -27 22 -40 32 -34 73 -30 114 11 43 43 46 84 7 118 -16 13 -30 32 -31 43 -5 27 3 18 87 -104z m-104 -10 c-3 -6 -14 -11 -23 -11 -15 1 -15 2 2 15 21 16 32 13 21 -4z"/>
 <path d="M476 217 c-23 -17 -17 -51 10 -55 26 -4 56 24 52 47 -4 21 -38 26 -62 8z"/>
 </g>

</svg>