<!DOCTYPE svg PUBLIC "-//W3C//DTD SVG 20010904//EN" "http://www.w3.org/TR/2001/REC-SVG-20010904/DTD/svg10.dtd">
<svg version="1.0" xmlns="http://www.w3.org/2000/svg" width="63px" height="63px" viewBox="0 0 630 630" preserveAspectRatio="xMidYMid meet">
<g id="layer1" fill="#ff2558" stroke="none">
 <path d="M172 600 c-114 -58 -172 -153 -172 -285 0 -132 58 -227 172 -285 53 -26 72 -30 143 -30 71 0 90 4 143 30 114 58 172 153 172 286 0 70 -4 89 -30 142 -58 114 -153 172 -286 172 -70 0 -89 -4 -142 -30z m244 -45 c47 -19 110 -80 134 -130 28 -58 29 -157 2 -217 -24 -53 -84 -112 -136 -133 -21 -9 -66 -16 -101 -16 -76 0 -127 20 -179 69 -53 51 -79 111 -78 186 0 71 17 118 61 169 77 87 191 115 297 72z"/>
 <path d="M210 315 l0 -155 78 0 c88 0 138 19 161 62 22 39 5 96 -35 117 l-31 17 34 49 c40 60 41 67 6 63 -21 -2 -36 -16 -62 -55 -28 -44 -39 -53 -62 -53 -28 0 -29 1 -29 55 0 54 0 55 -30 55 l-30 0 0 -155z m160 -18 c29 -14 37 -48 17 -66 -8 -6 -38 -14 -66 -18 l-51 -6 0 52 0 51 38 0 c20 0 48 -6 62 -13z"/>
 </g>

</svg>