<!DOCTYPE svg PUBLIC "-//W3C//DTD SVG 20010904//EN" "http://www.w3.org/TR/2001/REC-SVG-20010904/DTD/svg10.dtd">
<svg version="1.0" xmlns="http://www.w3.org/2000/svg" width="24px" height="24px" viewBox="0 0 240 240" preserveAspectRatio="xMidYMid meet">
<g id="layer1" fill="#ff2558" stroke="none">
 <path d="M0 120 l0 -120 53 0 c41 1 58 6 81 26 23 21 26 28 15 35 -20 12 -24 11 -44 -11 -10 -11 -31 -20 -47 -20 l-28 0 0 90 0 90 30 0 c27 0 30 -3 30 -30 0 -16 -4 -30 -10 -30 -5 0 -10 -9 -10 -20 0 -17 7 -20 40 -20 33 0 40 3 40 20 0 11 -6 20 -12 20 -8 0 -13 13 -13 30 0 29 2 30 43 30 40 0 42 -1 42 -30 0 -16 -4 -30 -10 -30 -5 0 -10 -9 -10 -20 0 -11 5 -20 10 -20 6 0 10 -18 10 -40 0 -36 -2 -40 -25 -40 -16 0 -25 -6 -25 -15 0 -11 11 -15 40 -15 l40 0 0 120 0 120 -120 0 -120 0 0 -120z"/>
 </g>

</svg>