<!DOCTYPE svg PUBLIC "-//W3C//DTD SVG 20010904//EN" "http://www.w3.org/TR/2001/REC-SVG-20010904/DTD/svg10.dtd">
<svg version="1.0" xmlns="http://www.w3.org/2000/svg" width="78px" height="75px" viewBox="0 0 780 750" preserveAspectRatio="xMidYMid meet">
<g id="layer1" fill="#ff2558" stroke="none">
 <path d="M141 737 c-8 -11 -6 -45 10 -137 l22 -124 -87 -80 c-84 -79 -104 -114 -75 -132 6 -3 63 -14 127 -23 l117 -16 55 -110 c48 -96 58 -110 80 -110 22 0 32 14 80 110 l55 110 117 16 c64 9 121 20 127 23 29 18 9 53 -75 132 l-87 81 22 122 c32 176 25 181 -135 95 l-104 -56 -104 56 c-110 59 -127 64 -145 43z m169 -139 l80 -43 81 43 c44 24 82 42 84 40 2 -2 -4 -43 -13 -91 l-15 -88 67 -68 68 -68 -79 -12 c-43 -7 -86 -14 -95 -17 -9 -3 -33 -41 -54 -84 -20 -44 -40 -80 -44 -80 -3 0 -24 36 -45 80 -21 44 -46 82 -54 84 -9 3 -51 10 -94 17 l-79 12 68 68 67 68 -12 73 c-7 40 -15 81 -17 91 -3 9 -3 17 1 17 3 0 42 -19 85 -42z"/>
 </g>

</svg>