<!DOCTYPE svg PUBLIC "-//W3C//DTD SVG 20010904//EN" "http://www.w3.org/TR/2001/REC-SVG-20010904/DTD/svg10.dtd">
<svg version="1.0" xmlns="http://www.w3.org/2000/svg" width="43px" height="11px" viewBox="0 0 430 110" preserveAspectRatio="xMidYMid meet">
<g id="layer1" fill="#ff2558" stroke="none">
 <path d="M2 75 c0 -24 6 -39 18 -45 14 -8 19 -6 23 8 3 13 6 10 11 -10 6 -21 14 -28 33 -28 18 0 24 4 19 15 -4 10 1 15 14 15 11 0 20 6 21 13 0 6 5 0 11 -15 6 -18 17 -28 30 -28 14 0 18 5 14 15 -4 10 1 15 14 15 23 0 24 4 10 31 -6 11 -7 19 -1 19 5 0 12 -11 15 -25 6 -25 9 -25 91 -24 47 1 88 5 91 11 11 17 -17 68 -37 68 -16 0 -18 -5 -14 -27 l5 -28 -11 28 c-7 17 -18 27 -31 27 -17 0 -19 -5 -15 -27 l6 -28 -12 28 -11 27 -132 0 c-118 0 -133 -2 -137 -17 -4 -17 -5 -17 -6 0 -2 33 -19 17 -19 -18z m98 -5 c0 -5 -4 -10 -10 -10 -5 0 -10 5 -10 10 0 6 5 10 10 10 6 0 10 -4 10 -10z"/>
 <path d="M400 10 c0 -5 7 -10 15 -10 8 0 15 5 15 10 0 6 -7 10 -15 10 -8 0 -15 -4 -15 -10z"/>
 </g>

</svg>