<!DOCTYPE svg PUBLIC "-//W3C//DTD SVG 20010904//EN" "http://www.w3.org/TR/2001/REC-SVG-20010904/DTD/svg10.dtd">
<svg version="1.0" xmlns="http://www.w3.org/2000/svg" width="88px" height="69px" viewBox="0 0 880 690" preserveAspectRatio="xMidYMid meet">
<g id="layer1" fill="#ff2558" stroke="none">
 <path d="M575 669 c-60 -10 -190 -22 -287 -26 -168 -8 -178 -10 -202 -32 -14 -14 -26 -29 -26 -34 0 -15 411 -2 519 17 92 16 94 16 108 -4 11 -16 25 -20 74 -20 53 0 59 2 59 20 0 34 -29 80 -56 90 -32 13 -56 11 -189 -11z"/>
 <path d="M26 479 c-26 -31 -26 -31 -26 -220 0 -112 4 -198 10 -210 26 -47 46 -49 430 -49 384 0 404 2 430 49 6 12 10 99 10 211 l0 192 -29 29 -29 29 -385 0 -385 0 -26 -31z m729 -61 c6 -13 20 -27 33 -33 21 -9 22 -15 22 -128 0 -116 0 -118 -25 -129 -14 -6 -28 -22 -31 -35 l-6 -23 -308 0 -308 0 -6 23 c-3 13 -17 29 -31 35 -25 11 -25 13 -25 129 0 113 1 119 23 128 12 6 26 20 32 33 l10 22 305 0 305 0 10 -22z"/>
 <path d="M393 379 c-39 -11 -70 -49 -79 -95 -8 -46 1 -78 34 -115 23 -26 38 -32 78 -36 59 -5 90 10 121 56 26 39 29 77 9 126 -24 57 -95 85 -163 64z m93 -94 c32 -49 -22 -104 -74 -76 -29 16 -37 48 -18 76 23 34 70 34 92 0z"/>
 <path d="M136 298 c-21 -30 -20 -50 5 -82 28 -35 70 -35 98 0 25 32 26 52 5 82 -21 31 -87 31 -108 0z"/>
 <path d="M636 298 c-21 -30 -20 -50 5 -82 28 -35 70 -35 98 0 25 32 26 52 5 82 -11 16 -25 22 -54 22 -29 0 -43 -6 -54 -22z"/>
 </g>

</svg>