<!DOCTYPE svg PUBLIC "-//W3C//DTD SVG 20010904//EN" "http://www.w3.org/TR/2001/REC-SVG-20010904/DTD/svg10.dtd">
<svg version="1.0" xmlns="http://www.w3.org/2000/svg" width="68px" height="68px" viewBox="0 0 680 680" preserveAspectRatio="xMidYMid meet">
<g id="layer1" fill="#ff2558" stroke="none">
 <path d="M116 668 c-2 -7 -16 -49 -31 -93 -45 -135 -47 -125 24 -125 58 0 61 1 61 24 0 39 18 76 56 118 22 25 34 47 32 61 -3 20 -10 22 -71 25 -49 2 -68 -1 -71 -10z"/>
 <path d="M519 566 c-40 -38 -94 -77 -134 -97 -64 -31 -73 -33 -208 -37 -78 -2 -150 -9 -159 -14 -15 -7 -18 -23 -18 -102 0 -126 0 -126 162 -126 98 0 137 -4 182 -20 67 -23 175 -96 206 -141 17 -23 29 -29 49 -27 l26 3 3 119 c3 113 4 120 28 138 33 27 31 88 -3 103 -22 9 -23 15 -23 125 0 165 -11 172 -111 76z m41 -256 l0 -190 -52 40 c-57 43 -150 85 -210 95 -38 6 -38 6 -38 55 0 52 -1 51 70 65 44 9 133 54 185 94 22 17 41 31 43 31 1 0 2 -85 2 -190z"/>
 </g>

</svg>