<!DOCTYPE svg PUBLIC "-//W3C//DTD SVG 20010904//EN" "http://www.w3.org/TR/2001/REC-SVG-20010904/DTD/svg10.dtd">
<svg version="1.0" xmlns="http://www.w3.org/2000/svg" width="27px" height="27px" viewBox="0 0 270 270" preserveAspectRatio="xMidYMid meet">
<g id="layer1" fill="#ff2558" stroke="none">
 <path d="M0 259 c0 -7 7 -20 16 -30 15 -16 15 -20 0 -41 -19 -27 -20 -94 -2 -126 45 -83 197 -83 242 0 8 13 13 42 14 66 0 34 -6 49 -34 79 -28 31 -43 38 -92 45 -134 20 -144 20 -144 7z m74 -28 c3 -5 31 -11 63 -13 46 -4 61 -10 80 -32 35 -41 32 -97 -8 -130 -67 -57 -179 -18 -179 63 0 20 7 47 16 59 9 13 14 32 11 43 -5 19 7 27 17 10z"/>
 <path d="M120 166 c0 -18 7 -39 15 -46 23 -19 18 -31 -11 -28 -15 2 -29 -2 -31 -9 -6 -16 46 -29 66 -16 22 14 26 57 7 73 -9 7 -16 23 -16 36 0 15 -6 24 -15 24 -10 0 -15 -10 -15 -34z"/>
 </g>

</svg>