<!DOCTYPE svg PUBLIC "-//W3C//DTD SVG 20010904//EN" "http://www.w3.org/TR/2001/REC-SVG-20010904/DTD/svg10.dtd">
<svg version="1.0" xmlns="http://www.w3.org/2000/svg" width="84px" height="66px" viewBox="0 0 840 660" preserveAspectRatio="xMidYMid meet">
<g id="layer1" fill="#ff2558" stroke="none">
 <path d="M0 330 l0 -330 420 0 420 0 0 330 0 330 -420 0 -420 0 0 -330z m403 138 l-133 -133 -105 105 c-83 83 -105 110 -105 132 l0 28 237 0 238 0 -132 -132z m377 119 c0 -7 -40 -53 -90 -102 l-90 -89 -40 39 -40 39 62 63 62 63 68 0 c48 0 68 -4 68 -13z m0 -327 l0 -200 -360 0 -360 0 0 187 0 188 105 -105 105 -105 98 98 97 97 68 -67 67 -68 87 88 c49 48 89 87 90 87 2 0 3 -90 3 -200z"/>
 <path d="M612 228 c-7 -7 -12 -28 -12 -48 0 -20 5 -41 12 -48 16 -16 80 -16 96 0 16 16 16 80 0 96 -16 16 -80 16 -96 0z"/>
 </g>

</svg>