<!DOCTYPE svg PUBLIC "-//W3C//DTD SVG 20010904//EN" "http://www.w3.org/TR/2001/REC-SVG-20010904/DTD/svg10.dtd">
<svg version="1.0" xmlns="http://www.w3.org/2000/svg" width="78px" height="69px" viewBox="0 0 780 690" preserveAspectRatio="xMidYMid meet">
<g id="layer1" fill="#ff2558" stroke="none">
 <path d="M0 390 l0 -300 134 0 c125 0 135 -1 141 -20 3 -10 20 -31 36 -45 59 -49 172 -23 194 45 6 19 16 20 141 20 l134 0 0 300 0 300 -390 0 -390 0 0 -300z m720 165 l0 -75 -330 0 -330 0 0 75 0 75 330 0 330 0 0 -75z m0 -270 l0 -135 -330 0 -330 0 0 135 0 135 330 0 330 0 0 -135z m-295 -205 c-3 -5 -19 -10 -35 -10 -16 0 -32 5 -35 10 -4 6 10 10 35 10 25 0 39 -4 35 -10z"/>
 <path d="M360 360 c0 -27 3 -30 30 -30 27 0 30 3 30 30 0 27 -3 30 -30 30 -27 0 -30 -3 -30 -30z"/>
 </g>

</svg>