<!DOCTYPE svg PUBLIC "-//W3C//DTD SVG 20010904//EN" "http://www.w3.org/TR/2001/REC-SVG-20010904/DTD/svg10.dtd">
<svg version="1.0" xmlns="http://www.w3.org/2000/svg" width="67px" height="67px" viewBox="0 0 670 670" preserveAspectRatio="xMidYMid meet">
<g id="layer1" fill="#ff2558" stroke="none">
 <path d="M430 585 c-47 -47 -89 -85 -95 -85 -5 0 -37 27 -70 59 -59 59 -62 60 -154 80 -52 12 -96 19 -98 17 -2 -2 6 -46 17 -97 21 -93 22 -95 85 -159 l65 -65 -90 -90 c-50 -49 -89 -94 -89 -100 1 -5 35 -41 76 -80 l74 -69 87 87 c48 48 91 87 96 87 5 0 44 -34 87 -75 63 -61 82 -75 108 -75 69 0 121 53 121 121 0 26 -14 46 -80 113 l-80 82 90 88 c49 49 90 91 90 95 0 7 -143 151 -150 151 -3 0 -43 -38 -90 -85z m-281 -21 c11 -3 8 -10 -9 -29 -31 -33 -37 -32 -42 8 -4 35 0 37 51 21z m408 -16 l31 -33 -23 -17 c-20 -15 -25 -16 -35 -3 -16 19 -28 19 -46 1 -18 -19 -18 -30 1 -46 14 -12 13 -16 -12 -42 l-27 -28 -33 32 -33 32 67 68 c37 37 70 68 73 68 3 0 20 -15 37 -32z m-78 -356 l-34 -31 -150 147 -150 147 35 32 35 32 149 -148 149 -149 -34 -30z m-216 6 c-24 -25 -28 -26 -43 -13 -21 19 -28 19 -46 1 -18 -18 -18 -25 0 -45 13 -14 12 -19 -4 -38 l-18 -23 -34 34 -35 35 71 70 70 71 33 -32 33 -32 -27 -28z m317 -47 c22 -43 -24 -83 -66 -57 l-24 16 33 30 c38 35 43 36 57 11z"/>
 </g>

</svg>