<!DOCTYPE svg PUBLIC "-//W3C//DTD SVG 20010904//EN" "http://www.w3.org/TR/2001/REC-SVG-20010904/DTD/svg10.dtd">
<svg version="1.0" xmlns="http://www.w3.org/2000/svg" width="87px" height="79px" viewBox="0 0 870 790" preserveAspectRatio="xMidYMid meet">
<g id="layer1" fill="#ff2558" stroke="none">
 <path d="M380 773 c1 -10 7 -47 15 -82 l13 -65 164 -163 c160 -159 165 -163 207 -163 58 0 91 33 91 91 0 42 -4 47 -161 205 l-162 162 -70 16 c-88 20 -97 20 -97 -1z m272 -220 c140 -140 171 -183 130 -183 -22 0 -312 290 -312 313 0 40 43 9 182 -130z"/>
 <path d="M0 330 l0 -330 390 0 390 0 0 103 c0 102 0 104 -30 132 l-30 29 0 -102 0 -102 -330 0 -330 0 0 270 0 270 162 0 162 0 -29 30 -29 30 -163 0 -163 0 0 -330z"/>
 <path d="M120 330 l0 -210 270 0 270 0 0 103 c0 102 0 104 -30 132 l-30 29 0 -102 0 -102 -210 0 -210 0 0 150 0 150 162 0 162 0 -29 30 -29 30 -163 0 -163 0 0 -210z"/>
 </g>

</svg>