<!DOCTYPE svg PUBLIC "-//W3C//DTD SVG 20010904//EN" "http://www.w3.org/TR/2001/REC-SVG-20010904/DTD/svg10.dtd">
<svg version="1.0" xmlns="http://www.w3.org/2000/svg" width="73px" height="76px" viewBox="0 0 730 760" preserveAspectRatio="xMidYMid meet">
<g id="layer1" fill="#ff2558" stroke="none">
 <path d="M316 750 c-55 -17 -66 -37 -66 -112 l0 -68 -100 0 -100 0 0 -159 c0 -158 0 -160 -22 -163 -19 -2 -24 -10 -26 -44 l-3 -41 149 -82 c82 -44 152 -81 155 -81 10 0 271 143 290 158 29 26 20 92 -14 92 -10 0 -19 6 -19 14 0 9 17 15 55 18 34 3 66 13 83 25 27 20 27 22 30 149 1 71 0 139 -3 151 -7 30 -52 52 -124 59 -54 6 -59 9 -64 33 -4 17 -17 32 -34 40 -35 17 -149 23 -187 11z m164 -56 c7 -7 -5 -7 -39 0 -34 7 -64 6 -96 -1 -44 -10 -53 -1 -10 10 31 9 134 2 145 -9z m2 -62 c7 -7 -4 -7 -33 -1 -24 6 -64 8 -89 5 -33 -4 -40 -3 -25 4 24 12 133 6 147 -8z m185 -31 c14 -8 10 -9 -17 -3 -19 4 -52 7 -72 7 -21 -1 -38 3 -38 8 0 12 103 2 127 -12z m-190 -29 c6 -4 -30 -7 -82 -7 -51 0 -92 2 -90 4 19 18 140 20 172 3z m191 -30 c7 -5 -16 -7 -50 -4 -85 5 -96 10 -23 11 33 0 66 -3 73 -7z m-418 -40 c0 -37 71 -72 148 -72 31 0 32 -1 32 -45 0 -35 6 -52 25 -70 13 -14 31 -25 40 -25 10 0 15 -9 15 -27 0 -25 -11 -34 -102 -83 -56 -30 -106 -54 -111 -52 -5 1 -51 26 -103 54 l-94 52 0 143 0 143 75 0 c66 0 75 -2 75 -18z m229 9 c19 -12 1 -21 -57 -28 -56 -6 -134 13 -111 28 18 11 150 11 168 0z m179 -30 c7 -4 -13 -6 -45 -4 -79 6 -89 11 -23 12 30 0 61 -3 68 -8z m14 -69 c11 -11 8 -11 -15 -3 -35 14 -117 14 -151 1 -32 -12 -35 -3 -3 10 31 14 154 7 169 -8z m-5 -56 c12 -11 -6 -19 -56 -24 -84 -8 -163 17 -98 32 28 6 146 0 154 -8z m-488 -221 c64 -36 120 -65 123 -65 4 0 61 30 128 66 67 37 123 64 126 61 7 -7 -247 -143 -259 -139 -17 5 -232 124 -241 133 -22 21 11 5 123 -56z"/>
 </g>

</svg>