<!DOCTYPE svg PUBLIC "-//W3C//DTD SVG 20010904//EN" "http://www.w3.org/TR/2001/REC-SVG-20010904/DTD/svg10.dtd">
<svg version="1.0" xmlns="http://www.w3.org/2000/svg" width="78px" height="72px" viewBox="0 0 780 720" preserveAspectRatio="xMidYMid meet">
<g id="layer1" fill="#ff2558" stroke="none">
 <path d="M210 679 c0 -33 6 -47 34 -75 19 -19 41 -34 49 -34 12 0 7 -13 -18 -50 -19 -28 -39 -66 -46 -85 -15 -42 -21 -43 -39 -10 l-14 25 -28 -27 c-19 -18 -25 -30 -18 -37 5 -5 10 -23 10 -38 0 -22 -13 -41 -56 -81 -68 -64 -84 -93 -84 -153 0 -39 5 -51 34 -80 29 -29 41 -34 83 -34 28 0 58 6 69 15 28 21 380 21 408 0 11 -9 41 -15 69 -15 42 0 54 5 83 34 29 29 34 41 34 80 0 60 -16 89 -84 153 -43 40 -56 59 -56 81 0 15 5 33 10 38 7 7 1 19 -18 37 l-28 27 -14 -25 c-18 -33 -24 -32 -39 10 -7 19 -27 57 -46 85 -25 37 -30 50 -18 50 8 0 30 15 49 34 28 28 34 42 34 75 l0 41 -180 0 -180 0 0 -41z m272 -31 c-8 -8 -42 -13 -92 -13 -50 0 -84 5 -91 13 -10 10 8 12 91 12 83 0 101 -2 92 -12z m-52 -145 c54 -69 130 -290 130 -379 l0 -34 -170 0 -170 0 0 34 c0 87 73 304 126 373 30 40 56 42 84 6z m-271 -300 c-5 -21 -9 -59 -9 -85 0 -46 -1 -48 -28 -48 -68 0 -70 56 -5 122 26 26 48 48 49 48 1 0 -2 -17 -7 -37z m551 -83 c0 -34 -17 -50 -52 -50 -27 0 -28 2 -28 48 0 26 -5 65 -10 86 l-9 39 50 -49 c34 -33 49 -56 49 -74z"/>
 <path d="M360 255 l0 -75 30 0 30 0 0 75 0 75 -30 0 -30 0 0 -75z"/>
 </g>

</svg>