<!DOCTYPE svg PUBLIC "-//W3C//DTD SVG 20010904//EN" "http://www.w3.org/TR/2001/REC-SVG-20010904/DTD/svg10.dtd">
<svg version="1.0" xmlns="http://www.w3.org/2000/svg" width="20px" height="18px" viewBox="0 0 200 180" preserveAspectRatio="xMidYMid meet">
<g id="layer1" fill="#ff2558" stroke="none">
 <path d="M0 107 c0 -97 11 -107 108 -107 86 0 92 7 92 109 0 56 -3 71 -15 71 -11 0 -15 -13 -17 -52 -1 -36 -2 -43 -5 -20 -5 40 -23 42 -23 2 0 -28 -2 -30 -38 -30 -37 0 -38 1 -34 30 3 22 0 30 -11 30 -10 0 -17 -12 -20 -32 -3 -23 -4 -16 -5 20 -2 39 -6 52 -17 52 -12 0 -15 -15 -15 -73z"/>
 </g>

</svg>