<!DOCTYPE svg PUBLIC "-//W3C//DTD SVG 20010904//EN" "http://www.w3.org/TR/2001/REC-SVG-20010904/DTD/svg10.dtd">
<svg version="1.0" xmlns="http://www.w3.org/2000/svg" width="64px" height="64px" viewBox="0 0 640 640" preserveAspectRatio="xMidYMid meet">
<g id="layer1" fill="#ff2558" stroke="none">
 <path d="M50 557 c0 -80 -1 -84 -25 -95 -24 -11 -25 -14 -25 -120 0 -103 1 -111 25 -136 23 -25 24 -29 10 -49 -25 -36 -19 -82 16 -122 28 -32 36 -35 83 -35 44 0 56 4 80 28 34 37 44 93 22 126 -15 24 -15 27 9 62 14 20 25 47 25 60 0 20 -5 24 -29 24 -23 0 -31 -6 -40 -30 -17 -51 -78 -64 -116 -25 -22 21 -25 33 -25 93 0 64 2 70 25 80 23 11 25 16 25 87 0 71 1 75 23 75 21 0 22 -3 19 -73 l-3 -74 30 -13 c17 -7 31 -16 31 -21 0 -5 14 -9 30 -9 27 0 30 3 30 30 0 23 -6 33 -25 42 -24 11 -25 15 -25 95 l0 83 -85 0 -85 0 0 -83z m120 -427 c14 -26 4 -57 -20 -65 -44 -14 -80 41 -48 73 19 19 56 14 68 -8z"/>
 <path d="M420 557 c0 -80 -1 -84 -25 -95 -22 -10 -25 -18 -25 -59 l0 -47 -40 39 -40 39 0 -27 c0 -26 -2 -27 -55 -27 l-55 0 0 -35 0 -35 55 0 c48 0 55 -2 55 -20 0 -27 9 -25 47 12 l33 32 0 -41 c0 -26 8 -53 25 -77 24 -35 24 -38 9 -62 -22 -33 -12 -89 22 -126 24 -24 36 -28 80 -28 47 0 55 3 83 35 35 40 41 87 16 123 -15 20 -14 24 10 49 24 26 25 34 25 136 0 105 -1 108 -25 119 -24 11 -25 15 -25 95 l0 83 -85 0 -85 0 0 -83z m110 -52 c0 -71 2 -76 25 -87 23 -10 25 -16 25 -80 0 -61 -3 -72 -26 -95 -20 -20 -31 -24 -57 -19 -50 10 -61 28 -65 110 l-4 73 32 13 31 13 -3 74 c-3 70 -2 73 20 73 21 0 22 -4 22 -75z m8 -367 c19 -19 14 -56 -8 -68 -43 -23 -83 17 -60 60 12 22 49 27 68 8z"/>
 </g>

</svg>