<!DOCTYPE svg PUBLIC "-//W3C//DTD SVG 20010904//EN" "http://www.w3.org/TR/2001/REC-SVG-20010904/DTD/svg10.dtd">
<svg version="1.0" xmlns="http://www.w3.org/2000/svg" width="82px" height="82px" viewBox="0 0 820 820" preserveAspectRatio="xMidYMid meet">
<g id="layer1" fill="#ff2558" stroke="none">
 <path d="M279 797 c-168 -58 -268 -190 -277 -364 -10 -194 102 -359 281 -414 281 -87 558 131 534 420 -10 126 -74 239 -172 306 -69 47 -126 66 -220 71 -66 4 -92 1 -146 -19z m267 -81 c166 -76 246 -279 172 -438 -35 -76 -98 -142 -167 -175 -47 -23 -70 -27 -141 -28 -73 0 -93 4 -141 28 -67 32 -142 109 -172 175 -17 37 -22 65 -21 132 0 75 4 92 31 146 86 165 275 235 439 160z"/>
 <path d="M254 616 c-3 -8 -4 -23 -2 -33 3 -16 17 -18 140 -21 154 -3 139 7 158 -101 14 -79 12 -81 -91 -81 -81 0 -89 -5 -89 -51 0 -15 -16 -3 -61 46 -48 51 -68 65 -90 65 -25 0 -29 -4 -29 -27 0 -20 10 -36 34 -55 19 -15 55 -59 81 -98 42 -63 50 -70 79 -70 44 0 56 16 56 72 l0 48 60 0 c64 0 113 18 124 45 12 33 7 84 -20 213 -2 12 -13 31 -24 42 -18 18 -34 20 -170 20 -122 0 -152 -3 -156 -14z"/>
 </g>

</svg>