<!DOCTYPE svg PUBLIC "-//W3C//DTD SVG 20010904//EN" "http://www.w3.org/TR/2001/REC-SVG-20010904/DTD/svg10.dtd">
<svg version="1.0" xmlns="http://www.w3.org/2000/svg" width="84px" height="60px" viewBox="0 0 840 600" preserveAspectRatio="xMidYMid meet">
<g id="layer1" fill="#ff2558" stroke="none">
 <path d="M0 300 l0 -300 420 0 420 0 0 300 0 300 -420 0 -420 0 0 -300z m780 0 l0 -240 -360 0 -360 0 0 240 0 240 360 0 360 0 0 -240z"/>
 <path d="M300 482 c0 -29 -3 -32 -32 -32 l-32 0 32 -33 c27 -28 31 -38 26 -65 -4 -18 -11 -35 -15 -38 -12 -7 -12 -69 0 -92 5 -9 14 -29 20 -45 7 -19 20 -29 41 -34 17 -3 33 -10 36 -14 7 -12 81 -12 88 0 3 4 19 11 36 14 21 5 34 15 41 34 6 16 15 36 20 45 12 23 12 85 0 92 -4 3 -11 20 -15 38 -5 27 -1 37 26 65 l32 33 -32 0 c-29 0 -32 3 -32 32 l0 32 -48 -47 c-30 -30 -56 -47 -72 -47 -16 0 -42 17 -72 47 l-48 47 0 -32z m135 -142 c3 -5 15 -10 26 -10 12 0 19 -7 19 -18 0 -10 5 -23 12 -30 9 -9 9 -15 0 -24 -7 -7 -12 -20 -12 -30 0 -11 -7 -18 -18 -18 -10 0 -23 -5 -30 -12 -9 -9 -15 -9 -24 0 -7 7 -20 12 -30 12 -11 0 -18 7 -18 18 0 10 -5 23 -12 30 -9 9 -9 15 0 24 7 7 12 20 12 30 0 11 7 18 19 18 11 0 23 5 26 10 3 6 10 10 15 10 5 0 12 -4 15 -10z"/>
 </g>

</svg>