<!DOCTYPE svg PUBLIC "-//W3C//DTD SVG 20010904//EN" "http://www.w3.org/TR/2001/REC-SVG-20010904/DTD/svg10.dtd">
<svg version="1.0" xmlns="http://www.w3.org/2000/svg" width="77px" height="77px" viewBox="0 0 770 770" preserveAspectRatio="xMidYMid meet">
<g id="layer1" fill="#ff2558" stroke="none">
 <path d="M0 385 l0 -385 155 0 156 0 64 47 c35 27 64 53 64 58 0 6 -8 21 -19 34 l-20 23 -62 -46 -62 -46 -103 0 -103 0 0 315 0 315 125 0 125 0 0 -125 0 -125 -50 0 -50 0 0 -35 0 -35 135 0 135 0 0 35 0 35 -50 0 -50 0 0 125 0 125 155 0 155 0 0 -125 0 -125 -50 0 -50 0 0 -35 0 -35 50 0 50 0 0 -155 0 -155 -110 0 -110 0 0 -35 0 -35 145 0 145 0 0 385 0 385 -385 0 -385 0 0 -385z"/>
 </g>

</svg>