<svg xmlns="http://www.w3.org/2000/svg" viewBox="0 0 182.2 43.74"><defs><style>.a{fill:#fff;}.b{fill:#d4124e;}</style></defs><title>LOGO</title><path class="a" d="M156.47,21.91a3.9,3.9,0,0,0-.69-2.24,3.75,3.75,0,0,0-2-1.45,3.37,3.37,0,0,0,2.06-3.37V14.2a4.07,4.07,0,0,0-1.25-3A5.35,5.35,0,0,0,150.71,10h-4.37a1.45,1.45,0,0,0-1.11.49,1.64,1.64,0,0,0-.46,1.15V25.42a1.55,1.55,0,0,0,.46,1.12,1.51,1.51,0,0,0,1.11.47h4.94a5.56,5.56,0,0,0,4-1.19,4.18,4.18,0,0,0,1.25-3.18l0-.07ZM147.94,13h2.73a2.16,2.16,0,0,1,1.48.47,1.59,1.59,0,0,1,.51,1.26v.58c0,1.19-.85,1.8-2.56,1.8h-2.15Zm4.85,10.57a2.15,2.15,0,0,1-1.59.51h-3.28V19.93H151a2.53,2.53,0,0,1,1.66.49,1.64,1.64,0,0,1,.6,1.31l0,.49A1.83,1.83,0,0,1,152.79,23.55Zm-92.65,3a1.53,1.53,0,0,1-.44-1.12V11.32a1.64,1.64,0,0,1,.46-1.15,1.44,1.44,0,0,1,1.11-.49,1.53,1.53,0,0,1,1.13.49,1.56,1.56,0,0,1,.49,1.15V23.9h5.73a1.49,1.49,0,0,1,1.11.44,1.46,1.46,0,0,1,.44,1.08,1.53,1.53,0,0,1-.44,1.12,1.49,1.49,0,0,1-1.11.44H61.2A1.42,1.42,0,0,1,60.14,26.54Zm19.4.21a1.55,1.55,0,0,1-.46-1.12V11.39a1.64,1.64,0,0,1,.46-1.15,1.45,1.45,0,0,1,1.11-.49,1.53,1.53,0,0,1,1.13.49,1.57,1.57,0,0,1,.49,1.15V17l5.22-6.64a1.4,1.4,0,0,1,1.18-.58,1.42,1.42,0,0,1,1.11.44,1.6,1.6,0,0,1,.42,1.12,1.33,1.33,0,0,1-.37,1l-4,4.65a66,66,0,0,1,4.64,7.86v0a1.7,1.7,0,0,1,.18.75,1.48,1.48,0,0,1-.48,1.12A1.63,1.63,0,0,1,89,27.2a1.46,1.46,0,0,1-1.39-.91,66.54,66.54,0,0,0-4-6.8l-1.48,1.73v4.37a1.64,1.64,0,0,1-.46,1.15,1.45,1.45,0,0,1-1.11.49A1.51,1.51,0,0,1,79.54,26.76Zm90.09-2.41a1.45,1.45,0,0,1,.44,1.08v.07a1.52,1.52,0,0,1-.44,1.12,1.42,1.42,0,0,1-1.06.44h-7.51a1.42,1.42,0,0,1-1.06-.44,1.52,1.52,0,0,1-.44-1.12v-14a1.51,1.51,0,0,1,.44-1.1,1.44,1.44,0,0,1,1.06-.47h7.18a1.49,1.49,0,0,1,1.11.44,1.54,1.54,0,0,1,0,2.15,1.49,1.49,0,0,1-1.11.44h-5.5v4h5a1.41,1.41,0,0,1,1,.44,1.44,1.44,0,0,1,.44,1.05,1.36,1.36,0,0,1-.44,1,1.48,1.48,0,0,1-1,.42h-5v4h5.82A1.42,1.42,0,0,1,169.63,24.35ZM72.71,26.68a1.55,1.55,0,0,1-.46-1.12V11.32a1.64,1.64,0,0,1,.46-1.15,1.44,1.44,0,0,1,1.11-.49,1.53,1.53,0,0,1,1.13.49,1.57,1.57,0,0,1,.48,1.15V25.56l0,0a1.64,1.64,0,0,1-.46,1.15,1.45,1.45,0,0,1-1.11.49A1.51,1.51,0,0,1,72.71,26.68Zm110.4-1.26a1.53,1.53,0,0,1-.44,1.12,1.49,1.49,0,0,1-1.11.44h-7.42a1.42,1.42,0,0,1-1.06-.44,1.53,1.53,0,0,1-.44-1.12V11.32a1.64,1.64,0,0,1,.46-1.15,1.44,1.44,0,0,1,1.11-.49,1.53,1.53,0,0,1,1.13.49,1.56,1.56,0,0,1,.49,1.15V23.9h5.73a1.49,1.49,0,0,1,1.11.44A1.46,1.46,0,0,1,183.1,25.42ZM127.62,10.15A1.51,1.51,0,0,1,128,11.2V25.68h0a1.44,1.44,0,0,1-.42,1.05,1.39,1.39,0,0,1-1,.42,1.34,1.34,0,0,1-1-.44,1.52,1.52,0,0,1-.42-1.05V16.77L122,23.39a1.57,1.57,0,0,1-2.89,0l-3.14-6.64v8.91a1.42,1.42,0,0,1-.42,1,1.44,1.44,0,0,1-2,0,1.42,1.42,0,0,1-.42-1V11.18a1.37,1.37,0,0,1,.44-1.05,1.49,1.49,0,0,1,1.06-.42,1.57,1.57,0,0,1,1.52,1l4.46,9.19,4.51-9.28a1.48,1.48,0,0,1,1.48-.87A1.4,1.4,0,0,1,127.62,10.15ZM102.9,26.61a1.42,1.42,0,0,1-1.06.44H94.33a1.42,1.42,0,0,1-1.06-.44,1.52,1.52,0,0,1-.44-1.12v-14a1.51,1.51,0,0,1,.44-1.1A1.44,1.44,0,0,1,94.33,10h7.18a1.49,1.49,0,0,1,1.11.44,1.54,1.54,0,0,1,0,2.15,1.49,1.49,0,0,1-1.11.44H96v4h5a1.41,1.41,0,0,1,1,.44,1.44,1.44,0,0,1,.44,1.05,1.36,1.36,0,0,1-.44,1,1.48,1.48,0,0,1-1,.42H96v4h5.82a1.42,1.42,0,0,1,1.06.44,1.45,1.45,0,0,1,.44,1.08v.07A1.52,1.52,0,0,1,102.9,26.61Zm38.81-2.27a1.45,1.45,0,0,1,.44,1.08v.07a1.52,1.52,0,0,1-.44,1.12,1.42,1.42,0,0,1-1.06.44h-7.51a1.42,1.42,0,0,1-1.06-.44,1.52,1.52,0,0,1-.44-1.12v-14a1.51,1.51,0,0,1,.44-1.1,1.44,1.44,0,0,1,1.06-.47h7.18a1.49,1.49,0,0,1,1.11.44,1.54,1.54,0,0,1,0,2.15,1.49,1.49,0,0,1-1.11.44h-5.5v4h5a1.41,1.41,0,0,1,1,.44,1.44,1.44,0,0,1,.44,1.05,1.36,1.36,0,0,1-.44,1,1.48,1.48,0,0,1-1,.42h-5v4h5.82A1.42,1.42,0,0,1,141.71,24.35Zm-80,7.95a1.92,1.92,0,0,0-.57,1.44,1.86,1.86,0,0,0,.55,1.39,2,2,0,0,0,1.45.54,2.1,2.1,0,0,0,1.73-.77l1.31.91a4,4,0,0,1-5.72.35A3.54,3.54,0,0,1,60,31.92a3.41,3.41,0,0,1,1.34-1.28,4,4,0,0,1,1.92-.47,3.85,3.85,0,0,1,1.77.4,3.36,3.36,0,0,1,1.28,1.13l-1.38.77a2.34,2.34,0,0,0-.77-.57,2.3,2.3,0,0,0-.89-.16A2.06,2.06,0,0,0,61.75,32.29Zm13.69-1.95L77.09,37H75.47l-.88-3.92-2,3.92h-.68L70,33.1,69.13,37H67.51l1.65-6.68h1.09l2.06,4.22,2-4.22Zm7.93.3a3.46,3.46,0,0,0-1.76-.47,3.3,3.3,0,0,0-2.29.91,3.57,3.57,0,0,0-.13,5.1,3.27,3.27,0,0,0,2.42,1,3.46,3.46,0,0,0,1.77-.46,3.36,3.36,0,0,0,1.26-1.29,3.54,3.54,0,0,0,.46-1.77,3.49,3.49,0,0,0-.46-1.75A3.39,3.39,0,0,0,83.36,30.64Zm-.44,4.45a1.71,1.71,0,0,1-1.29.55,1.69,1.69,0,0,1-1.29-.54,2,2,0,0,1-.51-1.41,1.94,1.94,0,0,1,.51-1.39,1.81,1.81,0,0,1,2.58,0,2.18,2.18,0,0,1,0,2.8ZM90,30.34,92.86,37H91.17l-1.65-4.21L87.84,37H86.15L89,30.34Zm7.29-.17a3.25,3.25,0,0,0-2.44,1,3.51,3.51,0,0,0-1,2.54,3.37,3.37,0,0,0,3.51,3.48,3.86,3.86,0,0,0,1.73-.36,3.3,3.3,0,0,0,1.25-1.11L99,35.07a2.19,2.19,0,0,1-1.6.66,1.91,1.91,0,0,1-1.28-.42,1.8,1.8,0,0,1-.62-1.13h5.32v-.32a3.68,3.68,0,0,0-1-2.67A3.37,3.37,0,0,0,97.33,30.17Zm-1.74,2.68A2.19,2.19,0,0,1,96.2,32a2,2,0,0,1,1.22-.39,1.86,1.86,0,0,1,1.12.35,1.68,1.68,0,0,1,.65.91Zm11.21-2.51h1.66V37H106.8V34.26h-2.48V37h-1.66V30.34h1.66v2.41h2.48Zm5.75,1.95a1.92,1.92,0,0,0-.57,1.44,1.86,1.86,0,0,0,.55,1.39,2,2,0,0,0,1.45.54,2.1,2.1,0,0,0,1.73-.77l1.31.91a4,4,0,0,1-5.72.35,3.54,3.54,0,0,1-.51-4.23,3.41,3.41,0,0,1,1.34-1.28,4,4,0,0,1,1.92-.47,3.85,3.85,0,0,1,1.77.4,3.36,3.36,0,0,1,1.28,1.13l-1.38.77a2.34,2.34,0,0,0-.77-.57,2.3,2.3,0,0,0-.89-.16A2.06,2.06,0,0,0,112.55,32.29Zm9.55,1.31,3,3.43h-2.2l-2-2.36-.18.21V37h-1.66V30.34h1.66v2.5l2.28-2.5h2Z" transform="translate(-0.9 -1.63)"/><path class="b" d="M42,3.14C37.08.45,30.62,1.43,25.79,5.49a1.35,1.35,0,0,1-1.75,0C19.2,1.43,12.75.45,7.84,3.14a12.92,12.92,0,0,0-6.5,8.72,17.07,17.07,0,0,0,.47,9.35c2,5.89,7.4,16.44,22.34,24a2.08,2.08,0,0,0,1.52,0C40.61,37.64,46.06,27.08,48,21.2a17.07,17.07,0,0,0,.47-9.35A12.92,12.92,0,0,0,42,3.14ZM41,18.85c-1.31,4.32-5.37,12.09-16.07,18.34-10.71-6.25-14.77-14-16.07-18.34a11.33,11.33,0,0,1-.42-4.65A7.17,7.17,0,0,1,11.65,9.8a5.18,5.18,0,0,1,2.51-.6,7.55,7.55,0,0,1,4.68,1.65,5.5,5.5,0,0,1,2.53,4.77A4.61,4.61,0,0,0,22,18.75a3.68,3.68,0,0,0,5.81,0,4.61,4.61,0,0,0,.64-3.14A5.5,5.5,0,0,1,31,10.85,7.55,7.55,0,0,1,35.66,9.2a5.18,5.18,0,0,1,2.51.6,7.17,7.17,0,0,1,3.23,4.41A11.33,11.33,0,0,1,41,18.85Z" transform="translate(-0.9 -1.63)"/></svg>